<!DOCTYPE svg PUBLIC "-//W3C//DTD SVG 1.1//EN" "http://www.w3.org/Graphics/SVG/1.1/DTD/svg11.dtd">
<!-- Uploaded to: SVG Repo, www.svgrepo.com, Transformed by: SVG Repo Mixer Tools -->
<svg fill="#000000" width="800px" height="800px" viewBox="0 0 24 24" id="font-square-3" data-name="Flat Color" xmlns="http://www.w3.org/2000/svg" class="icon flat-color">
<g id="SVGRepo_bgCarrier" stroke-width="0"/>
<g id="SVGRepo_tracerCarrier" stroke-linecap="round" stroke-linejoin="round"/>
<g id="SVGRepo_iconCarrier">
<rect id="primary" x="2" y="2" width="20" height="20" rx="2" style="fill: #ff0000000000;"/>
<path id="secondary" d="M16.94,16.67l-3.5-10A1,1,0,0,0,12.5,6h-1a1,1,0,0,0-.94.67l-3.5,10a1,1,0,0,0,1.88.66L9.76,15h4.48l.82,2.33A1,1,0,0,0,16,18a1,1,0,0,0,.33-.06A1,1,0,0,0,16.94,16.67ZM10.46,13,12,8.6,13.54,13Z" style="fill: #ff0000;"/>
</g>
</svg>